<svg width="24" height="24" viewBox="0 0 24 24" fill="none" xmlns="http://www.w3.org/2000/svg">
  <path d="M12 4.5C7.30558 4.5 3.22183 7.30558 1.5 12C3.22183 16.6944 7.30558 19.5 12 19.5C16.6944 19.5 20.7782 16.6944 22.5 12C20.7782 7.30558 16.6944 4.5 12 4.5ZM12 17.5C8.41015 17.5 5.5 14.5899 5.5 11C5.5 7.41015 8.41015 4.5 12 4.5C15.5899 4.5 18.5 7.41015 18.5 11C18.5 14.5899 15.5899 17.5 12 17.5ZM12 6.5C9.51472 6.5 7.5 8.51472 7.5 11C7.5 13.4853 9.51472 15.5 12 15.5C14.4853 15.5 16.5 13.4853 16.5 11C16.5 8.51472 14.4853 6.5 12 6.5ZM12 13.5C10.6193 13.5 9.5 12.3807 9.5 11C9.5 9.61929 10.6193 8.5 12 8.5C13.3807 8.5 14.5 9.61929 14.5 11C14.5 12.3807 13.3807 13.5 12 13.5Z" fill="black"/>
</svg>